<svg width="377" height="174" viewBox="0 0 377 174" fill="none" xmlns="http://www.w3.org/2000/svg">
<path d="M250.701 91.6246C250.701 91.6246 262.936 37.9721 288.76 3.64903L377.001 0C377.001 0 333.998 39.9593 321.543 61.637L373.045 57.8434C373.045 57.8434 291.763 115.398 264.437 174C264.437 174 258.503 125.767 286.379 87.9755L250.701 91.6246Z" fill="#FFD93F"/>
<path d="M141.067 29.3218C141.067 29.3218 125.902 35.789 108.503 49.0124C91.1036 62.2358 81.4699 77.2295 81.4699 77.2295C81.4699 77.2295 86.7446 77.6631 85.0596 80.2283C83.3747 82.7935 78.5762 87.3458 78.5762 87.3458C78.5762 87.3458 87.404 93.0544 113.484 104.291C139.565 115.527 143.338 117.478 143.631 116.466C143.96 115.455 155.938 118.49 155.938 118.49C155.938 118.49 124.73 100.894 109.052 87.0207C109.052 87.0207 112.825 83.769 122.312 80.5174C131.799 77.2657 136.818 76.3625 137.001 75.2063C137.184 74.0502 134.107 73.5443 134.107 73.5443L145.096 70.1843C145.096 70.1843 124.07 69.3895 101.726 74.3753C101.726 74.3753 112.276 57.7919 123.375 49.4821C134.473 41.1723 139.235 38.9684 139.418 37.3787C139.602 35.789 137.001 34.8135 137.001 34.8135C137.001 34.8135 137.624 31.7063 141.067 29.3218Z" fill="white"/>
<path d="M67.4043 55.9852C67.4043 55.9852 54.2908 70.0035 40.9209 90.489C27.551 110.974 10.1151 137.168 14.291 139.806C18.4668 142.443 25.0602 141.468 25.0602 141.468C25.0602 141.468 24.181 144.394 26.1224 144.647C28.0638 144.9 42.0564 133.23 58.6864 126.944C75.3163 120.621 88.5764 117.08 88.9427 115.382C89.309 113.648 83.8511 112.636 84.1808 112.636C84.4738 112.636 90.4078 111.155 90.8474 109.24C91.3236 107.325 87.0013 106.494 80.4811 107.253C73.961 108.012 44.7304 116.647 44.7304 116.647C44.7304 116.647 66.1589 78.5662 78.0636 62.9943C89.9683 47.4225 93.851 44.3876 93.8144 42.0392C93.7778 39.6908 83.9976 39.9798 83.9976 39.9798C83.9976 39.9798 82.7156 37.3062 81.287 37.2701C79.8585 37.234 43.5582 38.8959 18.3202 43.7734C-6.91775 48.6509 0.371602 48.9399 3.11884 51.2161C5.82945 53.5284 1.61703 58.1891 1.61703 58.1891C1.61703 58.1891 13.9979 57.6833 13.8147 60.2124C13.6316 62.7415 9.78546 65.5957 9.78546 65.5957C9.78546 65.5957 39.1626 57.6472 67.4043 55.9852Z" fill="white"/>
<path d="M151.947 31.5977C151.947 31.5977 156.123 53.4922 157.478 72.6047C158.834 91.7173 157.552 108.734 158.541 109.312C159.493 109.89 167.954 106.386 178.98 107.578C190.006 108.77 198.174 109.132 199.09 108.048C200.006 106.964 199.127 104.435 199.127 104.435C199.127 104.435 201.251 104.76 201.654 103.279C202.057 101.797 200.006 100.208 200.006 100.208C200.006 100.208 200.006 85.1778 199.127 66.9323C198.284 48.723 192.606 32.7538 192.606 32.7538C192.606 32.7538 188.87 94.1018 187.808 97.787C187.808 97.787 177.625 94.3186 169.786 95.0051C169.786 95.0051 165.354 70.1118 161.691 52.9864C158.028 35.8609 157.002 32.4647 156.123 32.6454C155.354 32.7899 154.658 35.9693 154.658 35.9693L151.947 31.5977Z" fill="white"/>
<path d="M282.752 61.6577C282.752 61.6577 253.595 45.3633 234.804 40.9555C216.013 36.5477 212.459 37.5231 213.888 38.5709C215.317 39.5825 218.76 41.5336 218.76 41.5336C218.76 41.5336 206.049 41.2445 207.185 42.7981C208.32 44.3517 211.947 56.1299 211.873 68.4862C211.8 80.8425 211.8 89.2968 212.533 89.622C213.265 89.9472 219.749 89.4053 219.749 89.4053C219.749 89.4053 218.137 91.8982 219.675 92.1511C221.214 92.404 228.65 90.8504 236.525 91.3562C244.401 91.8621 248.027 92.8376 248.027 92.8376C248.027 92.8376 248.796 109.855 243.925 122.428C243.925 122.428 206.928 107.795 205.683 109.385C204.437 110.938 206.635 114.443 206.635 114.443L192.35 120.188C192.35 120.188 211.837 123.945 227.917 130.268C243.998 136.59 253.228 142.01 254.73 141.468C256.232 140.926 258.76 134.061 262.789 113.323C266.818 92.5847 264.547 82.36 262.972 81.1316C259.456 78.4218 223.119 79.9754 223.119 79.9754C223.119 79.9754 224.767 65.3068 223.448 56.455C223.485 56.4189 225.023 50.9634 282.752 61.6577Z" fill="white"/>
</svg>
