<svg width="1001" height="486" viewBox="0 0 1001 486" fill="none" xmlns="http://www.w3.org/2000/svg">
<path d="M664.99 255.453C664.99 255.453 697.442 105.868 765.941 10.1736L1000 0C1000 0 885.935 111.408 852.9 171.846L989.509 161.27C989.509 161.27 773.908 321.733 701.426 485.118C701.426 485.118 685.686 350.643 759.625 245.279L664.99 255.453Z" fill="#FFD93F"/>
<path d="M374.185 63.9648C374.185 63.9648 333.96 81.9956 287.809 118.863C241.657 155.73 216.104 197.533 216.104 197.533C216.104 197.533 230.095 198.742 225.625 205.894C221.156 213.046 208.428 225.738 208.428 225.738C208.428 225.738 231.844 241.654 301.023 272.981C370.201 304.308 380.209 309.747 380.986 306.927C381.861 304.107 413.633 312.568 413.633 312.568C413.633 312.568 330.851 263.512 289.266 224.832C289.266 224.832 299.274 215.766 324.438 206.7C349.603 197.634 362.914 195.116 363.4 191.893C363.886 188.669 355.724 187.259 355.724 187.259L384.873 177.891C384.873 177.891 329.102 175.675 269.834 189.576C269.834 189.576 297.816 143.341 327.256 120.173C356.696 97.0045 369.327 90.86 369.813 86.4278C370.299 81.9957 363.4 79.2758 363.4 79.2758C363.4 79.2758 365.052 70.6131 374.185 63.9648Z" fill="white"/>
<path d="M178.791 138.303C178.791 138.303 144.007 177.387 108.543 234.501C73.0794 291.615 26.8306 364.645 37.907 371.998C48.9834 379.351 66.4725 376.632 66.4725 376.632C66.4725 376.632 64.1406 384.791 69.2902 385.496C74.4397 386.201 111.555 353.665 155.667 336.138C199.778 318.51 234.95 308.638 235.922 303.904C236.894 299.069 222.417 296.248 223.291 296.248C224.068 296.248 239.808 292.119 240.974 286.78C242.237 281.441 230.772 279.124 213.478 281.24C196.183 283.355 118.648 307.43 118.648 307.43C118.648 307.43 175.488 201.26 207.065 157.845C238.642 114.43 248.942 105.969 248.844 99.421C248.747 92.8735 222.805 93.6794 222.805 93.6794C222.805 93.6794 219.405 86.2254 215.615 86.1246C211.826 86.0239 115.539 90.6575 48.5948 104.256C-18.3494 117.855 0.985681 118.66 8.27279 125.007C15.4627 131.453 4.28919 144.448 4.28919 144.448C4.28919 144.448 37.1297 143.037 36.6439 150.089C36.1581 157.14 25.9561 165.097 25.9561 165.097C25.9561 165.097 103.88 142.937 178.791 138.303Z" fill="white"/>
<path d="M403.037 70.3101C403.037 70.3101 414.113 131.353 417.708 184.639C421.303 237.926 417.903 285.37 420.526 286.981C423.052 288.593 445.497 278.822 474.742 282.146C503.988 285.47 525.655 286.478 528.084 283.456C530.513 280.434 528.181 273.383 528.181 273.383C528.181 273.383 533.816 274.289 534.885 270.159C535.954 266.029 530.513 261.597 530.513 261.597C530.513 261.597 530.513 219.693 528.181 168.824C525.946 118.056 510.886 73.5334 510.886 73.5334C510.886 73.5334 500.976 244.574 498.158 254.848C498.158 254.848 471.147 245.178 450.355 247.092C450.355 247.092 438.598 177.689 428.882 129.943C419.166 82.1962 416.445 72.7275 414.113 73.2311C412.073 73.6341 410.227 82.4983 410.227 82.4983L403.037 70.3101Z" fill="white"/>
<path d="M750 154.117C750 154.117 672.659 108.687 622.815 96.3981C572.971 84.109 563.547 86.8286 567.336 89.7498C571.125 92.5702 580.258 98.0099 580.258 98.0099C580.258 98.0099 546.543 97.204 549.555 101.535C552.567 105.867 562.186 138.705 561.992 173.155C561.798 207.605 561.798 231.176 563.741 232.082C565.684 232.989 582.882 231.478 582.882 231.478C582.882 231.478 578.607 238.428 582.687 239.133C586.768 239.838 606.492 235.507 627.382 236.917C648.271 238.327 657.89 241.047 657.89 241.047C657.89 241.047 659.931 288.491 647.008 323.546C647.008 323.546 548.875 282.75 545.572 287.182C542.268 291.513 548.098 301.284 548.098 301.284L510.205 317.3C510.205 317.3 561.895 327.776 604.549 345.404C647.203 363.032 671.687 378.141 675.671 376.63C679.655 375.12 686.359 355.981 697.047 298.161C707.734 240.342 701.71 211.835 697.532 208.41C688.205 200.856 591.821 205.187 591.821 205.187C591.821 205.187 596.193 164.29 592.695 139.611C592.792 139.511 596.873 124.301 750 154.117Z" fill="white"/>
</svg>
